<svg width="124" height="126" viewBox="0 0 124 126" fill="none" xmlns="http://www.w3.org/2000/svg">
<g filter="url(#filter0_d_2039_49)">
<path d="M2 0V120H122V0H2ZM62 60H72V100C71.9921 102.65 70.936 105.189 69.0623 107.062C67.1887 108.936 64.6497 109.992 62 110H52C49.3503 109.992 46.8113 108.936 44.9377 107.062C43.064 105.189 42.0079 102.65 42 100V90H52V100H62V60ZM92 60H112V70H92V80H102C104.65 80.0079 107.189 81.064 109.062 82.9377C110.936 84.8113 111.992 87.3503 112 90V100C111.992 102.65 110.936 105.189 109.062 107.062C107.189 108.936 104.65 109.992 102 110H82V100H102V90H92C89.3503 89.9921 86.8113 88.936 84.9377 87.0623C83.064 85.1887 82.0079 82.6497 82 80V70C82.0079 67.3503 83.064 64.8113 84.9377 62.9377C86.8113 61.064 89.3503 60.0079 92 60Z" fill="url(#paint0_linear_2039_49)"/>
</g>
<defs>
<filter id="filter0_d_2039_49" x="0" y="0" width="124" height="126" filterUnits="userSpaceOnUse" color-interpolation-filters="sRGB">
<feFlood flood-opacity="0" result="BackgroundImageFix"/>
<feColorMatrix in="SourceAlpha" type="matrix" values="0 0 0 0 0 0 0 0 0 0 0 0 0 0 0 0 0 0 127 0" result="hardAlpha"/>
<feOffset dy="4"/>
<feGaussianBlur stdDeviation="1"/>
<feComposite in2="hardAlpha" operator="out"/>
<feColorMatrix type="matrix" values="0 0 0 0 0 0 0 0 0 0 0 0 0 0 0 0 0 0 0.25 0"/>
<feBlend mode="normal" in2="BackgroundImageFix" result="effect1_dropShadow_2039_49"/>
<feBlend mode="normal" in="SourceGraphic" in2="effect1_dropShadow_2039_49" result="shape"/>
</filter>
<linearGradient id="paint0_linear_2039_49" x1="122" y1="11.6868" x2="2" y2="108.313" gradientUnits="userSpaceOnUse">
<stop stop-color="#E4B929"/>
<stop offset="1" stop-color="#FF3700"/>
</linearGradient>
</defs>
</svg>
