<svg width="32" height="33" viewBox="0 0 32 33" fill="none" xmlns="http://www.w3.org/2000/svg">
<mask id="mask0_2069_265" style="mask-type:luminance" maskUnits="userSpaceOnUse" x="6" y="8" width="21" height="17">
<path d="M6.3999 8.70062H26.3999V24.1936H6.3999V8.70062Z" fill="white"/>
</mask>
<g mask="url(#mask0_2069_265)">
<path d="M23.3306 10.0803C22.034 9.48517 20.6656 9.06073 19.2597 8.8176C19.247 8.81527 19.2338 8.817 19.222 8.82256C19.2103 8.82813 19.2006 8.83723 19.1943 8.8486C19.0185 9.1612 18.8237 9.5692 18.6874 9.8898C17.1501 9.6596 15.6208 9.6596 14.1151 9.8898C13.9787 9.562 13.7769 9.1612 13.6003 8.8486C13.5938 8.83742 13.5841 8.82847 13.5724 8.82293C13.5607 8.8174 13.5476 8.81554 13.5348 8.8176C12.1289 9.06018 10.7604 9.48464 9.46394 10.0803C9.4529 10.0851 9.44357 10.0931 9.43714 10.1033C6.84434 13.9769 6.13414 17.7553 6.48254 21.4869C6.48466 21.5053 6.49402 21.5222 6.50854 21.5337C8.21914 22.79 9.87624 23.5527 11.5025 24.0582C11.5152 24.0619 11.5287 24.0617 11.5412 24.0576C11.5538 24.0535 11.5648 24.0457 11.5727 24.0352C11.9574 23.5098 12.3003 22.9559 12.5944 22.3734C12.5985 22.3654 12.6008 22.3567 12.6012 22.3477C12.6016 22.3388 12.6002 22.3299 12.5969 22.3215C12.5936 22.3132 12.5886 22.3057 12.5822 22.2994C12.5758 22.2932 12.5681 22.2884 12.5597 22.2853C12.0157 22.0789 11.4978 21.8274 10.9996 21.5417C10.9906 21.5364 10.9829 21.5289 10.9775 21.5199C10.972 21.5109 10.9688 21.5007 10.9681 21.4902C10.9675 21.4797 10.9695 21.4692 10.9739 21.4596C10.9783 21.45 10.985 21.4417 10.9933 21.4353C11.0984 21.3567 11.2017 21.2758 11.3031 21.1925C11.312 21.1852 11.3228 21.1805 11.3342 21.1789C11.3456 21.1774 11.3572 21.179 11.3677 21.1837C14.6409 22.6781 18.1844 22.6781 21.4189 21.1837C21.4295 21.1787 21.4413 21.1768 21.4528 21.1783C21.4644 21.1797 21.4754 21.1843 21.4844 21.1917C21.586 21.2754 21.6895 21.3567 21.795 21.4353C21.8035 21.4416 21.8102 21.4499 21.8147 21.4594C21.8191 21.469 21.8212 21.4795 21.8206 21.49C21.8201 21.5005 21.817 21.5107 21.8115 21.5197C21.8061 21.5287 21.7986 21.5363 21.7895 21.5417C21.2911 21.8328 20.7689 22.0812 20.2286 22.2845C20.2203 22.2877 20.2127 22.2927 20.2063 22.299C20.2 22.3054 20.1951 22.313 20.1919 22.3214C20.1887 22.3298 20.1873 22.3387 20.1878 22.3477C20.1883 22.3567 20.1906 22.3654 20.1947 22.3734C20.4939 22.9513 20.8351 23.5064 21.2155 24.0344C21.2233 24.0452 21.2343 24.0532 21.2468 24.0575C21.2594 24.0618 21.273 24.062 21.2857 24.0582C22.9199 23.5527 24.577 22.79 26.2877 21.5337C26.2951 21.5283 26.3011 21.5214 26.3056 21.5135C26.3101 21.5055 26.3129 21.4968 26.3137 21.4877C26.7307 17.1736 25.6152 13.4261 23.3566 10.1041C23.3511 10.0933 23.3419 10.0848 23.3306 10.0803ZM13.0832 19.2148C12.0977 19.2148 11.2857 18.3101 11.2857 17.199C11.2857 16.0879 12.082 15.1832 13.0832 15.1832C14.0922 15.1832 14.8963 16.0959 14.8805 17.199C14.8805 18.3101 14.0843 19.2148 13.0832 19.2148ZM19.7288 19.2148C18.7433 19.2148 17.9314 18.3101 17.9314 17.199C17.9314 16.0879 18.7276 15.1832 19.7288 15.1832C20.7378 15.1832 21.5419 16.0959 21.5262 17.199C21.5262 18.3101 20.7378 19.2148 19.7288 19.2148Z" fill="white"/>
</g>
<rect x="1" y="1.70062" width="30" height="30" rx="6" stroke="white" stroke-width="2"/>
</svg>
