<svg width="31" height="29" viewBox="0 0 31 29" fill="none" xmlns="http://www.w3.org/2000/svg">
<g filter="url(#filter0_d_2069_252)">
<path d="M18 4.5H7.125C6.62772 4.5 6.15081 4.69754 5.79917 5.04917C5.44754 5.40081 5.25 5.87772 5.25 6.375V17.625C5.25 18.1223 5.44754 18.5992 5.79917 18.9508C6.15081 19.3025 6.62772 19.5 7.125 19.5H22.8155C23.3128 19.5 23.7897 19.3025 24.1413 18.9508C24.4929 18.5992 24.6905 18.1223 24.6905 17.625V11.2031" stroke="white" stroke-width="2" stroke-linecap="round" stroke-linejoin="round"/>
<path d="M8.25 7.5L15 12.75L19.0781 9.67172" stroke="white" stroke-width="2" stroke-linecap="round" stroke-linejoin="round"/>
<path d="M23.2477 8.25001C24.489 8.25001 25.4953 7.2437 25.4953 6.00236C25.4953 4.76101 24.489 3.7547 23.2477 3.7547C22.0063 3.7547 21 4.76101 21 6.00236C21 7.2437 22.0063 8.25001 23.2477 8.25001Z" fill="white"/>
<mask id="path-4-inside-1_2069_252" fill="white">
<path d="M23.2501 9.00001C22.6572 9.00001 22.0777 8.8242 21.5847 8.49482C21.0917 8.16543 20.7075 7.69726 20.4806 7.14951C20.2537 6.60176 20.1944 5.99903 20.31 5.41754C20.4257 4.83606 20.7112 4.30192 21.1304 3.88269C21.5497 3.46346 22.0838 3.17797 22.6653 3.0623C23.2468 2.94663 23.8495 3.006 24.3973 3.23288C24.945 3.45977 25.4132 3.84399 25.7426 4.33695C26.0719 4.82991 26.2478 5.40948 26.2478 6.00236C26.2471 6.79719 25.9311 7.5593 25.3691 8.12134C24.807 8.68337 24.0449 8.99939 23.2501 9.00001ZM23.2501 4.5047C22.9533 4.50424 22.6631 4.59182 22.4161 4.75636C22.1691 4.9209 21.9765 5.155 21.8626 5.42905C21.7487 5.7031 21.7187 6.00477 21.7763 6.2959C21.8339 6.58702 21.9766 6.85452 22.1863 7.06453C22.396 7.27454 22.6632 7.41764 22.9543 7.47571C23.2453 7.53377 23.547 7.50421 23.8212 7.39074C24.0955 7.27728 24.3299 7.08502 24.4948 6.8383C24.6597 6.59158 24.7478 6.30147 24.7478 6.0047C24.7478 5.60728 24.59 5.22611 24.3092 4.94487C24.0284 4.66363 23.6475 4.50532 23.2501 4.5047Z"/>
</mask>
<path d="M23.2501 9.00001C22.6572 9.00001 22.0777 8.8242 21.5847 8.49482C21.0917 8.16543 20.7075 7.69726 20.4806 7.14951C20.2537 6.60176 20.1944 5.99903 20.31 5.41754C20.4257 4.83606 20.7112 4.30192 21.1304 3.88269C21.5497 3.46346 22.0838 3.17797 22.6653 3.0623C23.2468 2.94663 23.8495 3.006 24.3973 3.23288C24.945 3.45977 25.4132 3.84399 25.7426 4.33695C26.0719 4.82991 26.2478 5.40948 26.2478 6.00236C26.2471 6.79719 25.9311 7.5593 25.3691 8.12134C24.807 8.68337 24.0449 8.99939 23.2501 9.00001ZM23.2501 4.5047C22.9533 4.50424 22.6631 4.59182 22.4161 4.75636C22.1691 4.9209 21.9765 5.155 21.8626 5.42905C21.7487 5.7031 21.7187 6.00477 21.7763 6.2959C21.8339 6.58702 21.9766 6.85452 22.1863 7.06453C22.396 7.27454 22.6632 7.41764 22.9543 7.47571C23.2453 7.53377 23.547 7.50421 23.8212 7.39074C24.0955 7.27728 24.3299 7.08502 24.4948 6.8383C24.6597 6.59158 24.7478 6.30147 24.7478 6.0047C24.7478 5.60728 24.59 5.22611 24.3092 4.94487C24.0284 4.66363 23.6475 4.50532 23.2501 4.5047Z" fill="white"/>
<path d="M23.2501 9.00001V11L23.2517 11L23.2501 9.00001ZM26.2478 6.00236L28.2478 6.00392V6.00236H26.2478ZM23.2501 4.5047L23.2532 2.5047L23.2501 4.5047ZM24.7478 6.0047L26.7478 6.0047L24.7478 6.0047ZM23.2501 9.00001V7.00001C23.0528 7.00001 22.8599 6.9415 22.6958 6.83188L21.5847 8.49482L20.4735 10.1578C21.2954 10.7069 22.2617 11 23.2501 11V9.00001ZM21.5847 8.49482L22.6958 6.83188C22.5318 6.72226 22.4039 6.56644 22.3284 6.38414L20.4806 7.14951L18.6329 7.91488C19.0111 8.82808 19.6517 9.60861 20.4735 10.1578L21.5847 8.49482ZM20.4806 7.14951L22.3284 6.38414C22.2529 6.20184 22.2331 6.00125 22.2716 5.80772L20.31 5.41754L18.3485 5.02736C18.1556 5.99681 18.2546 7.00168 18.6329 7.91488L20.4806 7.14951ZM20.31 5.41754L22.2716 5.80772C22.3101 5.6142 22.4051 5.43643 22.5446 5.29691L21.1304 3.88269L19.7162 2.46848C19.0173 3.16742 18.5413 4.05791 18.3485 5.02736L20.31 5.41754ZM21.1304 3.88269L22.5446 5.29691C22.6842 5.15738 22.8619 5.06237 23.0555 5.02387L22.6653 3.0623L22.2751 1.10073C21.3057 1.29357 20.4152 1.76955 19.7162 2.46848L21.1304 3.88269ZM22.6653 3.0623L23.0555 5.02387C23.249 4.98538 23.4496 5.00513 23.6319 5.08064L24.3973 3.23288L25.1626 1.38513C24.2494 1.00686 23.2446 0.907894 22.2751 1.10073L22.6653 3.0623ZM24.3973 3.23288L23.6319 5.08064C23.8142 5.15615 23.97 5.28403 24.0796 5.44809L25.7426 4.33695L27.4055 3.22581C26.8563 2.40395 26.0758 1.76339 25.1626 1.38513L24.3973 3.23288ZM25.7426 4.33695L24.0796 5.44809C24.1892 5.61215 24.2478 5.80504 24.2478 6.00236H26.2478H28.2478C28.2478 5.01391 27.9546 4.04767 27.4055 3.22581L25.7426 4.33695ZM26.2478 6.00236L24.2478 6.0008C24.2475 6.26574 24.1422 6.51978 23.9549 6.70712L25.3691 8.12134L26.7833 9.53555C27.72 8.59882 28.2467 7.32865 28.2478 6.00392L26.2478 6.00236ZM25.3691 8.12134L23.9549 6.70712C23.7675 6.89447 23.5135 6.99981 23.2485 7.00001L23.2501 9.00001L23.2517 11C24.5764 10.999 25.8466 10.4723 26.7833 9.53555L25.3691 8.12134ZM23.2501 4.5047L23.2532 2.5047C22.5608 2.50362 21.8835 2.70797 21.3072 3.0919L22.4161 4.75636L23.525 6.42081C23.4426 6.47566 23.3459 6.50485 23.247 6.5047L23.2501 4.5047ZM22.4161 4.75636L21.3072 3.0919C20.731 3.47583 20.2815 4.02207 20.0157 4.66152L21.8626 5.42905L23.7095 6.19658C23.6715 6.28793 23.6073 6.36597 23.525 6.42081L22.4161 4.75636ZM21.8626 5.42905L20.0157 4.66152C19.75 5.30096 19.6799 6.00486 19.8143 6.68416L21.7763 6.2959L23.7382 5.90763C23.7574 6.00468 23.7474 6.10524 23.7095 6.19658L21.8626 5.42905ZM21.7763 6.2959L19.8143 6.68416C19.9488 7.36346 20.2817 7.98761 20.7709 8.47764L22.1863 7.06453L23.6016 5.65142C23.6715 5.72143 23.719 5.81059 23.7382 5.90763L21.7763 6.2959ZM22.1863 7.06453L20.7709 8.47764C21.2602 8.96767 21.8838 9.30155 22.5629 9.43705L22.9543 7.47571L23.3456 5.51436C23.4426 5.53372 23.5317 5.58142 23.6016 5.65142L22.1863 7.06453ZM22.9543 7.47571L22.5629 9.43705C23.242 9.57254 23.946 9.50355 24.5859 9.2388L23.8212 7.39074L23.0566 5.54268C23.148 5.50486 23.2486 5.49501 23.3456 5.51436L22.9543 7.47571ZM23.8212 7.39074L24.5859 9.2388C25.2257 8.97406 25.7727 8.52546 26.1575 7.94977L24.4948 6.8383L22.8321 5.72683C22.887 5.64459 22.9652 5.58051 23.0566 5.54268L23.8212 7.39074ZM24.4948 6.8383L26.1575 7.94977C26.5423 7.37408 26.7478 6.69718 26.7478 6.0047L24.7478 6.0047L22.7478 6.0047C22.7478 5.90577 22.7771 5.80907 22.8321 5.72683L24.4948 6.8383ZM24.7478 6.0047L26.7478 6.0047C26.7478 5.07739 26.3798 4.18798 25.7246 3.53176L24.3092 4.94487L22.8939 6.35798C22.8003 6.26423 22.7478 6.13717 22.7478 6.0047L24.7478 6.0047ZM24.3092 4.94487L25.7246 3.53176C25.0694 2.87554 24.1805 2.50615 23.2532 2.5047L23.2501 4.5047L23.247 6.5047C23.1145 6.50449 22.9875 6.45172 22.8939 6.35798L24.3092 4.94487Z" fill="white" mask="url(#path-4-inside-1_2069_252)"/>
</g>
<defs>
<filter id="filter0_d_2069_252" x="-1" y="0" width="32" height="32" filterUnits="userSpaceOnUse" color-interpolation-filters="sRGB">
<feFlood flood-opacity="0" result="BackgroundImageFix"/>
<feColorMatrix in="SourceAlpha" type="matrix" values="0 0 0 0 0 0 0 0 0 0 0 0 0 0 0 0 0 0 127 0" result="hardAlpha"/>
<feOffset dy="4"/>
<feGaussianBlur stdDeviation="2"/>
<feComposite in2="hardAlpha" operator="out"/>
<feColorMatrix type="matrix" values="0 0 0 0 0 0 0 0 0 0 0 0 0 0 0 0 0 0 0.25 0"/>
<feBlend mode="normal" in2="BackgroundImageFix" result="effect1_dropShadow_2069_252"/>
<feBlend mode="normal" in="SourceGraphic" in2="effect1_dropShadow_2069_252" result="shape"/>
</filter>
</defs>
</svg>
