<svg width="36" height="36" viewBox="0 0 36 36" fill="none" xmlns="http://www.w3.org/2000/svg">
<path d="M24.1113 2.53964C29.0717 2.53979 33.1298 6.5978 33.1299 11.5582V24.442C33.1297 29.4023 29.0716 33.4604 24.1113 33.4605H11.2275C6.26714 33.4605 2.20913 29.4024 2.20898 24.442V11.5582C2.20903 6.59773 6.26708 2.53969 11.2275 2.53964H24.1113ZM11.2275 5.11581C9.5205 5.12093 7.8848 5.80133 6.67773 7.00839C5.47067 8.21546 4.79028 9.85116 4.78516 11.5582V24.442C4.79033 26.149 5.47072 27.7848 6.67773 28.9918C7.88479 30.1988 9.52055 30.8792 11.2275 30.8844H24.1113C25.8183 30.8792 27.4541 30.1988 28.6611 28.9918C29.8682 27.7848 30.5485 26.149 30.5537 24.442V11.5582C30.5486 9.85121 29.8681 8.21545 28.6611 7.00839C27.4541 5.80137 25.8183 5.12098 24.1113 5.11581H11.2275ZM17.6689 10.2701C19.7192 10.2701 21.686 11.0841 23.1357 12.5338C24.5853 13.9834 25.3993 15.9496 25.3994 17.9996C25.3994 19.5285 24.9461 21.0233 24.0967 22.2945C23.2473 23.5657 22.0404 24.5571 20.6279 25.1422C19.2154 25.7273 17.6607 25.8799 16.1611 25.5816C14.6617 25.2833 13.2842 24.5474 12.2031 23.4664C11.1221 22.3854 10.3862 21.0078 10.0879 19.5084C9.78961 18.0089 9.94225 16.4541 10.5273 15.0416C11.1124 13.6291 12.1038 12.4223 13.375 11.5728C14.6461 10.7235 16.1402 10.2702 17.6689 10.2701ZM17.6689 12.8463C16.3027 12.8478 14.9925 13.3909 14.0264 14.357C13.0603 15.3231 12.5172 16.6333 12.5156 17.9996C12.5156 19.0188 12.8177 20.0154 13.3838 20.8629C13.9501 21.7104 14.7555 22.3712 15.6973 22.7613C16.639 23.1514 17.6751 23.2531 18.6748 23.0543C19.6745 22.8554 20.5927 22.3649 21.3135 21.6441C22.0342 20.9234 22.5248 20.0052 22.7236 19.0055C22.9225 18.0058 22.8207 16.9696 22.4307 16.0279C22.0406 15.0862 21.3798 14.2808 20.5322 13.7144C19.6848 13.1483 18.6881 12.8463 17.6689 12.8463ZM25.667 7.73007C26.0418 7.65561 26.4302 7.6942 26.7832 7.84042C27.1363 7.9867 27.438 8.23455 27.6504 8.55234C27.8627 8.87008 27.9765 9.24346 27.9766 9.62558C27.9771 9.87951 27.927 10.1311 27.8301 10.3658C27.7332 10.6005 27.5907 10.8142 27.4111 10.9937C27.2317 11.1731 27.0187 11.3158 26.7842 11.4127C26.5496 11.5096 26.2978 11.5587 26.0439 11.5582C25.6617 11.5582 25.2875 11.4453 24.9697 11.233C24.6519 11.0206 24.4041 10.718 24.2578 10.3648C24.1117 10.0118 24.0739 9.62334 24.1484 9.24863C24.223 8.8739 24.4067 8.52958 24.6768 8.25937C24.947 7.98909 25.2921 7.80464 25.667 7.73007Z" fill="white"/>
</svg>
