<svg width="24" height="24" viewBox="0 0 24 24" fill="none" xmlns="http://www.w3.org/2000/svg">
<path d="M12 19.2C13.9096 19.2 15.7409 18.4414 17.0912 17.0912C18.4414 15.7409 19.2 13.9096 19.2 12C19.2 10.0904 18.4414 8.25909 17.0912 6.90883C15.7409 5.55857 13.9096 4.8 12 4.8C10.0904 4.8 8.25909 5.55857 6.90883 6.90883C5.55857 8.25909 4.8 10.0904 4.8 12C4.8 13.9096 5.55857 15.7409 6.90883 17.0912C8.25909 18.4414 10.0904 19.2 12 19.2ZM24 12C24 15.1826 22.7357 18.2348 20.4853 20.4853C18.2348 22.7357 15.1826 24 12 24C8.8174 24 5.76516 22.7357 3.51472 20.4853C1.26428 18.2348 0 15.1826 0 12C0 8.8174 1.26428 5.76516 3.51472 3.51472C5.76516 1.26428 8.8174 0 12 0C15.1826 0 18.2348 1.26428 20.4853 3.51472C22.7357 5.76516 24 8.8174 24 12ZM21.6 12C21.6 9.45392 20.5886 7.01212 18.7882 5.21178C16.9879 3.41143 14.5461 2.4 12 2.4C9.45392 2.4 7.01212 3.41143 5.21178 5.21178C3.41143 7.01212 2.4 9.45392 2.4 12C2.4 14.5461 3.41143 16.9879 5.21178 18.7882C7.01212 20.5886 9.45392 21.6 12 21.6C14.5461 21.6 16.9879 20.5886 18.7882 18.7882C20.5886 16.9879 21.6 14.5461 21.6 12Z" fill="url(#paint0_linear_2069_292)"/>
<defs>
<linearGradient id="paint0_linear_2069_292" x1="12" y1="0" x2="12" y2="24" gradientUnits="userSpaceOnUse">
<stop stop-color="#B50505"/>
<stop offset="1" stop-color="#BE0000" stop-opacity="0.98"/>
</linearGradient>
</defs>
</svg>
