<svg width="22" height="22" viewBox="0 0 22 22" fill="none" xmlns="http://www.w3.org/2000/svg">
<path d="M11.0406 10.3775V21M11.0406 21L14.7754 17.2509M11.0406 21L7.30581 17.2509M6.06088 4.79877C6.99202 4.93389 7.85459 5.36793 8.51961 6.03598M17.8877 13.5017C19.7787 13.5017 21 11.9634 21 10.065C20.9999 9.31349 20.7545 8.58268 20.3012 7.98454C19.8479 7.3864 19.2117 6.95391 18.4902 6.75332C18.3792 5.35172 17.8005 4.02866 16.8478 2.99806C15.895 1.96746 14.6238 1.28954 13.2398 1.07392C11.8557 0.858302 10.4396 1.11758 9.22049 1.80983C8.00137 2.50208 7.05046 3.58685 6.5215 4.88875C5.40782 4.57885 4.21712 4.72575 3.21133 5.29714C2.20555 5.86852 1.46707 6.81758 1.15836 7.93554C0.849643 9.0535 0.995981 10.2488 1.56518 11.2584C2.13438 12.2681 3.07981 13.0094 4.19349 13.3193" stroke="white" stroke-width="2" stroke-linecap="round" stroke-linejoin="round"/>
</svg>
