<svg width="32" height="33" viewBox="0 0 32 33" fill="none" xmlns="http://www.w3.org/2000/svg">
<g clip-path="url(#clip0_2069_268)">
<path d="M22.0952 9.85972C21.9543 9.78691 21.8172 9.70711 21.6843 9.62059C21.2979 9.36513 20.9436 9.06413 20.6291 8.72407C19.8421 7.82363 19.5482 6.91015 19.4399 6.27059H19.4443C19.3539 5.73972 19.3913 5.39624 19.3969 5.39624H15.8126V19.2562C15.8126 19.4423 15.8126 19.6262 15.8047 19.808C15.8047 19.8306 15.8026 19.8515 15.8013 19.8758C15.8013 19.8858 15.8013 19.8962 15.7991 19.9067V19.9145C15.7613 20.4118 15.6019 20.8922 15.3349 21.3134C15.0678 21.7346 14.7014 22.0838 14.2678 22.3302C13.8158 22.5873 13.3047 22.7221 12.7847 22.7215C11.1147 22.7215 9.76126 21.3597 9.76126 19.678C9.76126 17.9962 11.1147 16.6345 12.7847 16.6345C13.1009 16.6342 13.415 16.684 13.7156 16.7819L13.72 13.1323C12.8075 13.0145 11.8805 13.087 10.9975 13.3453C10.1145 13.6036 9.29458 14.0421 8.58952 14.6332C7.97172 15.17 7.45233 15.8105 7.05473 16.5258C6.90343 16.7867 6.33256 17.8349 6.26343 19.5362C6.21995 20.5019 6.50995 21.5023 6.64821 21.9158V21.9245C6.73517 22.168 7.07213 22.9988 7.62126 23.6993C8.06405 24.2611 8.58721 24.7547 9.17386 25.1641V25.1554L9.18256 25.1641C10.9178 26.3432 12.8417 26.2658 12.8417 26.2658C13.1747 26.2523 14.2904 26.2658 15.5573 25.6654C16.9626 24.9997 17.7626 24.008 17.7626 24.008C18.2736 23.4154 18.68 22.7401 18.9643 22.011C19.2886 21.1584 19.3969 20.1358 19.3969 19.7271V12.3741C19.4404 12.4002 20.0195 12.7832 20.0195 12.7832C20.0195 12.7832 20.8539 13.318 22.1556 13.6662C23.0895 13.9141 24.3478 13.9662 24.3478 13.9662V10.408C23.9069 10.4558 23.0117 10.3167 22.0952 9.85972Z" fill="white"/>
</g>
<rect x="1" y="1.70056" width="30" height="30" rx="6" stroke="white" stroke-width="2"/>
<defs>
<clipPath id="clip0_2069_268">
<rect width="22.2609" height="22.2609" fill="white" transform="translate(4.17383 4.70056)"/>
</clipPath>
</defs>
</svg>
