<svg width="36" height="36" viewBox="0 0 36 36" fill="none" xmlns="http://www.w3.org/2000/svg">
<path d="M3.68115 18.0001C3.68115 11.4065 3.68115 8.10818 5.72932 6.06001C7.77749 4.01184 11.0743 4.01184 17.6709 4.01184C24.2645 4.01184 27.5613 4.01184 29.6094 6.06001C31.6576 8.10818 31.6576 11.405 31.6576 18.0001C31.6576 24.5937 31.6576 27.892 29.6094 29.9401C27.5613 31.9883 24.2645 31.9883 17.6694 31.9883C11.0758 31.9883 7.77897 31.9883 5.72932 29.9401C3.68262 27.8905 3.68115 24.5951 3.68115 18.0001Z" stroke="white" stroke-width="2" stroke-linecap="round" stroke-linejoin="round"/>
<path d="M10.3071 25.3623L16.4826 19.1883M16.4826 19.1883L10.3071 10.6378H14.3961L18.8576 16.8133L25.0316 10.6378M16.4826 19.1883L20.9411 25.3623H25.0316L18.8576 16.8118" stroke="white" stroke-width="2" stroke-linecap="round" stroke-linejoin="round"/>
</svg>
